<?xml version="1.0" standalone="no"?>
<!DOCTYPE svg PUBLIC "-//W3C//DTD SVG 20010904//EN"
 "http://www.w3.org/TR/2001/REC-SVG-20010904/DTD/svg10.dtd">
<svg version="1.0" xmlns="http://www.w3.org/2000/svg"
 width="334.000000pt" height="113.000000pt" viewBox="0 0 334.000000 113.000000"
 preserveAspectRatio="xMidYMid meet">
<metadata>
Created by potrace 1.16, written by Peter Selinger 2001-2019
</metadata>
<g transform="translate(0.000000,113.000000) scale(0.100000,-0.100000)"
fill="#000000" stroke="none">
<path d="M0 565 l0 -565 1670 0 1670 0 0 565 0 565 -1670 0 -1670 0 0 -565z
m1233 194 c29 -16 37 -28 37 -61 0 -32 -5 -33 -53 -13 -20 8 -59 15 -88 15
-44 0 -55 -4 -84 -33 -59 -59 -59 -155 0 -214 31 -31 39 -34 82 -31 l48 3 3
47 3 47 -43 3 c-41 3 -43 5 -46 36 l-3 33 88 -3 88 -3 0 -105 0 -105 -30 -14
c-18 -9 -61 -15 -105 -15 -142 0 -218 71 -220 204 -1 146 97 237 243 225 32
-3 68 -10 80 -16z m939 -6 c18 -16 25 -58 10 -67 -5 -3 -27 2 -50 9 -28 10
-49 12 -66 6 -54 -21 -37 -60 43 -101 33 -16 68 -41 80 -56 44 -55 15 -157
-52 -185 -46 -20 -138 -17 -170 4 -21 13 -27 26 -27 52 0 40 1 40 40 20 51
-27 122 -20 134 12 12 30 -5 52 -57 77 -100 47 -135 110 -101 181 17 36 35 51
83 66 37 12 111 2 133 -18z m386 3 c60 -31 91 -94 92 -187 0 -75 -24 -142 -66
-178 -73 -65 -200 -67 -274 -5 -80 68 -76 271 8 347 49 45 175 57 240 23z
m-2128 -21 l0 -35 -80 0 -80 0 0 -50 0 -49 68 -3 67 -3 0 -30 0 -30 -67 -3
-68 -3 0 -54 0 -55 80 0 80 0 0 -35 0 -36 -122 3 -123 3 -3 195 c-1 107 0 200
2 207 4 10 37 13 126 13 l120 0 0 -35z m191 19 c8 -9 44 -74 81 -143 l68 -126
0 143 0 143 38 -3 37 -3 3 -185 c1 -102 0 -195 -3 -207 -5 -20 -12 -23 -49
-23 -28 0 -48 6 -57 16 -8 9 -47 78 -86 153 l-73 136 0 -152 0 -153 -40 0 -40
0 0 204 c0 154 3 206 13 209 29 12 95 6 108 -9z m819 -194 l0 -210 -45 0 -45
0 0 203 c0 112 3 207 7 210 3 4 24 7 45 7 l38 0 0 -210z m180 0 l0 -210 -45 0
-45 0 0 203 c0 112 3 207 7 210 3 4 24 7 45 7 l38 0 0 -210z m1335 175 l0 -30
-72 -3 -73 -3 0 -54 0 -54 68 -3 67 -3 3 -32 3 -33 -70 0 -71 0 0 -85 0 -85
-45 0 -45 0 0 203 c0 112 3 207 7 211 4 3 57 5 117 4 l111 -3 0 -30z m345 0
l0 -35 -55 0 -55 0 -2 -172 -3 -173 -42 -3 -43 -3 0 175 0 176 -60 0 -60 0 0
35 0 35 160 0 160 0 0 -35z m-1412 -187 c3 -35 1 -37 -32 -43 -19 -4 -61 -4
-93 -1 -32 3 -61 5 -65 6 -10 0 -10 64 -1 74 4 4 48 5 98 4 l90 -3 3 -37z"/>
<path d="M2383 676 c-27 -23 -28 -28 -28 -114 0 -82 2 -93 24 -116 33 -35 98
-36 136 -3 56 47 52 217 -6 247 -34 19 -96 12 -126 -14z"/>
</g>
</svg>
