<svg xmlns="http://www.w3.org/2000/svg" xmlns:xlink="http://www.w3.org/1999/xlink" xmlns:lucid="lucid" width="243.33"
  height="240.13">
  <g transform="translate(-780.0000000000001 -220)" lucid:page-tab-id="0_0">
    <path d="M0 0h1870.87v1322.83H0z" fill-opacity="0" />
    <path d="M800 266a6 6 0 0 1 6-6h191.33a6 6 0 0 1 6 6v168.13a6 6 0 0 1-6 6H806a6 6 0 0 1-6-6z" stroke="#3a414a"
      fill="#6f7681" />
    <path d="M802 246a6 6 0 0 1 6-6h128a6 6 0 0 1 6 6v188a6 6 0 0 1-6 6H808a6 6 0 0 1-6-6z" stroke="#000"
      stroke-opacity="0" fill="#fff" fill-opacity="0" />
    <use xlink:href="#a" transform="matrix(1,0,0,1,807,245) translate(-9.81481481481481 179.55555555555554)" />
    <path d="M997.33 260a6 6 0 0 1 6 6v168a6 6 0 0 1-6 6H946a6 6 0 0 1-6-6V266a6 6 0 0 1 6-6z" stroke="#000"
      stroke-opacity="0" fill="#fff" fill-opacity="0" />
    <use xlink:href="#b"
      transform="matrix(6.123233995736766e-17,1,-1,6.123233995736766e-17,998.3333333333333,265) translate(9.601851851851904 33.59722222222221)" />
    <defs>
      <path fill="#fff"
        d="M30-248c87 1 191-15 191 75 0 78-77 80-158 76V0H30v-248zm33 125c57 0 124 11 124-50 0-59-68-47-124-48v98"
        id="c" />
      <use transform="matrix(0.6234567901234568,0,0,0.6234567901234568,0,0)" xlink:href="#c" id="a" />
      <path fill="#fff"
        d="M233-177c-1 41-23 64-60 70L243 0h-38l-65-103H63V0H30v-248c88 3 205-21 203 71zM63-129c60-2 137 13 137-47 0-61-80-42-137-45v92"
        id="d" />
      <path fill="#fff"
        d="M140-251c81 0 123 46 123 126C263-46 219 4 140 4 59 4 17-45 17-125s42-126 123-126zm0 227c63 0 89-41 89-101s-29-99-89-99c-61 0-89 39-89 99S79-25 140-24"
        id="e" />
      <path fill="#fff"
        d="M153-248C145-148 188 4 80 4 36 3 13-21 6-62l32-5c4 25 16 42 43 43 27 0 39-20 39-49v-147H72v-28h81" id="f" />
      <path fill="#fff" d="M30 0v-248h187v28H63v79h144v27H63v87h162V0H30" id="g" />
      <path fill="#fff"
        d="M212-179c-10-28-35-45-73-45-59 0-87 40-87 99 0 60 29 101 89 101 43 0 62-24 78-52l27 14C228-24 195 4 139 4 59 4 22-46 18-125c-6-104 99-153 187-111 19 9 31 26 39 46"
        id="h" />
      <path fill="#fff" d="M127-220V0H93v-220H8v-28h204v28h-85" id="i" />
      <g id="b">
        <use transform="matrix(0.10493827160493821,0,0,0.10493827160493821,0,0)" xlink:href="#d" />
        <use transform="matrix(0.10493827160493821,0,0,0.10493827160493821,27.179012345678995,0)" xlink:href="#e" />
        <use transform="matrix(0.10493827160493821,0,0,0.10493827160493821,56.56172839506169,0)" xlink:href="#f" />
        <use transform="matrix(0.10493827160493821,0,0,0.10493827160493821,75.45061728395058,0)" xlink:href="#g" />
        <use transform="matrix(0.10493827160493821,0,0,0.10493827160493821,100.63580246913574,0)" xlink:href="#h" />
        <use transform="matrix(0.10493827160493821,0,0,0.10493827160493821,127.81481481481474,0)" xlink:href="#i" />
      </g>
    </defs>
  </g>
</svg>
