<svg xmlns="http://www.w3.org/2000/svg" xmlns:xlink="http://www.w3.org/1999/xlink" xmlns:lucid="lucid" width="181"
  height="169">
  <g transform="translate(-802 -269)" lucid:page-tab-id="0_0">
    <path d="M800 266a6 6 0 0 1 6-6h171.33a6 6 0 0 1 6 6v168.13a6 6 0 0 1-6 6H806a6 6 0 0 1-6-6z" stroke="#3a414a"
      fill="#6f7681" />
    <path d="M800 266a6 6 0 0 1 6-6h128a6 6 0 0 1 6 6v168.13a6 6 0 0 1-6 6H806a6 6 0 0 1-6-6z" stroke="#000"
      stroke-opacity="0" fill="#fff" fill-opacity="0" />
    <use xlink:href="#a" transform="matrix(1,0,0,1,805,265) translate(-1.666666666666643 159.99999999999994)" />
    <path d="M977.33 260.13a6 6 0 0 1 6 6v168a6 6 0 0 1-6 6H926a6 6 0 0 1-6-6v-168a6 6 0 0 1 6-6z" stroke="#000"
      stroke-opacity="0" fill="#fff" fill-opacity="0" />
    <use xlink:href="#b"
      transform="matrix(6.123233995736766e-17,1,-1,6.123233995736766e-17,978.3333333333333,265.13461538461536) translate(13.842592592592624 33.41666666666666)" />
    <use xlink:href="#c"
      transform="matrix(6.123233995736766e-17,1,-1,6.123233995736766e-17,978.3333333333333,265.13461538461536) translate(23.101851851851876 33.41666666666666)" />
    <defs>
      <path fill="#fff"
        d="M24-248c93 1 206-16 204 79-1 75-69 88-152 82V0H24v-248zm52 121c47 0 100 7 100-41 0-47-54-39-100-39v80"
        id="d" />
      <use transform="matrix(0.5555555555555554,0,0,0.5555555555555554,0,0)" xlink:href="#d" id="a" />
      <path fill="#fff"
        d="M233-177c-1 41-23 64-60 70L243 0h-38l-65-103H63V0H30v-248c88 3 205-21 203 71zM63-129c60-2 137 13 137-47 0-61-80-42-137-45v92"
        id="e" />
      <path fill="#fff"
        d="M140-251c81 0 123 46 123 126C263-46 219 4 140 4 59 4 17-45 17-125s42-126 123-126zm0 227c63 0 89-41 89-101s-29-99-89-99c-61 0-89 39-89 99S79-25 140-24"
        id="f" />
      <path fill="#fff"
        d="M153-248C145-148 188 4 80 4 36 3 13-21 6-62l32-5c4 25 16 42 43 43 27 0 39-20 39-49v-147H72v-28h81" id="g" />
      <path fill="#fff" d="M30 0v-248h187v28H63v79h144v27H63v87h162V0H30" id="h" />
      <path fill="#fff"
        d="M212-179c-10-28-35-45-73-45-59 0-87 40-87 99 0 60 29 101 89 101 43 0 62-24 78-52l27 14C228-24 195 4 139 4 59 4 22-46 18-125c-6-104 99-153 187-111 19 9 31 26 39 46"
        id="i" />
      <path fill="#fff" d="M127-220V0H93v-220H8v-28h204v28h-85" id="j" />
      <g id="c">
        <use transform="matrix(0.09259259259259255,0,0,0.09259259259259255,0,0)" xlink:href="#e" />
        <use transform="matrix(0.09259259259259255,0,0,0.09259259259259255,23.98148148148147,0)" xlink:href="#f" />
        <use transform="matrix(0.09259259259259255,0,0,0.09259259259259255,49.90740740740738,0)" xlink:href="#g" />
        <use transform="matrix(0.09259259259259255,0,0,0.09259259259259255,66.57407407407405,0)" xlink:href="#h" />
        <use transform="matrix(0.09259259259259255,0,0,0.09259259259259255,88.79629629629626,0)" xlink:href="#i" />
        <use transform="matrix(0.09259259259259255,0,0,0.09259259259259255,112.77777777777771,0)" xlink:href="#j" />
      </g>
    </defs>
  </g>
</svg>
